<?xml version="1.0" encoding="UTF-8"?><svg id="Layer_2" xmlns="http://www.w3.org/2000/svg" viewBox="0 0 1888.7 569.74"><defs><style>.cls-1{fill:#373736;}.cls-2{isolation:isolate;}.cls-3{fill:#92b467;}.cls-4{fill:#e01272;}.cls-5{fill:#7f7f7d;}</style></defs><g id="Layer_1-2"><g><path class="cls-4" d="M294.6,0c-48.07,27.46-92.42,52.92-136.97,78.08-6.29,2.72-10.31,8.96-10.2,15.81-.29,51.15-.84,102.25-1.27,159.48,48.95-27.51,91.15-51.4,133.79-74.74,12.96-7.1,14.83-17.74,14.73-30.68-.21-47.38-.06-94.73-.07-147.95Z"/><path class="cls-5" d="M421.56,239.83c48.07,27.46,92.42,52.92,136.97,78.08,6.29,2.72,10.31,8.96,10.2,15.81,.29,51.15,.84,102.25,1.27,159.48-48.95-27.51-91.15-51.4-133.79-74.74-12.96-7.1-14.83-17.74-14.73-30.68,.21-47.38,.06-94.73,.07-147.95Z"/><path class="cls-3" d="M0,487.96c47.98-27.62,92.35-53.04,136.57-78.79,5.52-4.05,12.94-4.38,18.8-.82,44.3,25.58,88.68,50.92,138.29,79.44-48.47,28.36-90.39,52.72-132.07,77.72-12.67,7.6-22.8,3.84-33.92-2.78-40.78-24.11-81.73-47.89-127.66-74.78Z"/></g><g><g class="cls-2"><path class="cls-1" d="M906.23,400.58l-81.18-101.38-23.88,24.61v76.77h-45.92V169.16h45.92v104.69l98.81-104.69h53.63l-94.77,100.28,102.48,131.13h-55.1Z"/></g><path class="cls-1" d="M1000.96,316.46c1.84,36,27.92,52.16,60.24,52.16,28.65,0,47.02-11.39,47.02-30.86,0-17.63-13.96-24.24-38.2-29.02l-44.08-8.08c-36-6.61-60.98-26.45-60.98-64.65,0-43.34,34.16-71.26,88.16-71.26,60.61,0,94.77,31.22,95.5,82.65l-42.24,1.47c-1.47-31.59-22.04-48.12-53.63-48.12-27.18,0-42.61,12.12-42.61,31.96,0,16.9,12.12,22.77,33.06,26.81l42.61,7.71c45.55,8.45,66.85,30.12,66.85,67.59,0,45.55-39.3,70.16-91.46,70.16-59.51,0-102.48-30.85-102.48-86.69l42.24-1.84Z"/><path class="cls-1" d="M1293.71,400.58h-108.73V169.16h102.85c58.4,0,83.38,24.98,83.38,62.81,0,26.08-17.63,44.45-42.61,48.49,27.92,5.14,49.59,23.51,49.59,56.57,0,40.04-30.49,63.55-84.48,63.55Zm-63.91-135.18h55.1c27.55,0,39.3-12.12,39.3-29.39s-11.75-29.75-39.3-29.75h-55.1v59.14Zm0,34.9v63.18h58.77c28.65,0,42.61-12.12,42.61-31.22s-13.96-31.96-42.61-31.96h-58.77Z"/></g><g><path class="cls-4" d="M1888.7,169.9c-4.03,18.95-7.99,37.38-11.83,55.85-.52,2.49-1.43,3.45-4.13,3.42-13.23-.15-26.46,.02-39.68-.14-2.86-.03-3.9,.87-4.49,3.62-8.02,37.18-16.15,74.33-24.25,111.5-3.79,17.41-7.68,34.8-11.27,52.25-.57,2.76-1.59,3.4-4.13,3.39-20.83-.07-41.66-.1-62.49,.02-3.45,.02-3.44-1.06-2.8-3.98,11.05-50.12,21.97-100.27,32.9-150.41,.87-3.98,1.51-8.02,2.57-11.95,.9-3.33,.28-4.48-3.49-4.45-20.22,.18-40.45,.08-60.67,.08-41.66,0-83.33,.05-124.99-.08-3.92-.01-5.92,.53-6.47,5.05-.9,7.33-2.54,14.58-4.24,21.78-.84,3.58-.14,4.52,3.64,4.48,19.77-.19,39.53-.09,59.3-.09,5.49,0,5.42-.01,4.28,5.24-3.27,15.05-6.55,30.09-9.65,45.17-.62,3.03-1.75,4.07-5.02,4.04-20.37-.19-40.75-.01-61.12-.18-3.09-.03-4.18,1.06-4.8,3.82-5.79,25.62-11.74,51.2-17.42,76.85-.82,3.71-2.27,4.71-6.01,4.67-20.22-.21-40.45-.14-60.67-.05-2.9,.01-4.07-.56-3.35-3.77,7.61-34.03,15.07-68.1,22.68-102.13,6.38-28.57,11.93-57.34,19.21-85.71,3.01-11.72,7.76-22.62,18.34-29.86,6.69-4.58,14.29-6.43,22.11-7.46,9.35-1.23,18.77-.97,28.18-.97,104.76,.01,209.53,0,314.29,0h5.49Z"/><path class="cls-4" d="M1722.57,260.24c-4.68,20.72-9.33,41.15-13.91,61.6-5.44,24.31-10.87,48.62-16.13,72.96-.79,3.64-1.99,5.11-6.09,5.06-20.06-.27-40.14-.28-60.2,0-4.39,.06-4.39-1.36-3.62-4.79,9.81-43.43,19.5-86.89,29.3-130.32,.45-1.99,.34-4.58,3.84-4.57,22.19,.11,44.38,.05,66.81,.05Z"/></g></g></svg>