<svg xmlns="http://www.w3.org/2000/svg" viewBox="0 0 1880.26 552.86"><defs><style>.cls-1{fill:#e01272;}.cls-2{fill:#92b467;}.cls-3{fill:#7f7f7d;}.cls-4{isolation:isolate;}.cls-5{fill:#373736;}</style></defs><g id="Layer_2" data-name="Layer 2"><g id="Layer_1-2" data-name="Layer 1"><path class="cls-1" d="M275.49,0c0,43.08-1.91,86.24,0,129.33.92,22.34-7.65,34.51-26.17,44.54-36.12,18.82-70.71,39.64-112.11,63.36V90.68c0-15.3,11.86-17.67,21.12-23.64,35.81-23.19,75.76-39.8,109.51-67Z"/><path class="cls-2" d="M0,476.29c44.92-25.86,86.47-49.66,127.87-73.77a15.85,15.85,0,0,1,17.6-.76c41.48,23.95,83,47.67,129.49,74.38-45.38,26.55-84.64,49.36-123.67,72.78-11.86,7.11-21.35,3.59-31.76-2.61C81.35,523.74,43,501.47,0,476.29Z"/><path class="cls-3" d="M547.92,473.16c-43.69-24.8-82.95-47.3-122.44-69.41a21.9,21.9,0,0,1-11.25-22V244c43.85,25.26,82.95,47.91,122.44,70.18A22.12,22.12,0,0,1,548,336.25C547.84,380,547.92,424,547.92,473.16Z"/><g class="cls-4"><path class="cls-5" d="M897.78,392.14,816.6,290.76l-23.87,24.61v76.77H746.81V160.72h45.92V265.41l98.81-104.69h53.63L850.4,261,952.88,392.14Z"/></g><path class="cls-5" d="M992.52,308c1.84,36,27.92,52.16,60.24,52.16,28.65,0,47-11.39,47-30.85,0-17.64-14-24.25-38.2-29l-44.08-8.08c-36-6.62-61-26.45-61-64.65,0-43.35,34.16-71.26,88.16-71.26,60.61,0,94.77,31.22,95.5,82.64l-42.24,1.47c-1.47-31.59-22-48.12-53.63-48.12-27.18,0-42.61,12.12-42.61,32,0,16.9,12.12,22.77,33.06,26.82l42.61,7.71c45.55,8.45,66.85,30.12,66.85,67.59,0,45.55-39.3,70.16-91.46,70.16-59.51,0-102.48-30.86-102.48-86.69Z"/><path class="cls-5" d="M1285.27,392.14H1176.54V160.72h102.85c58.41,0,83.38,25,83.38,62.82,0,26.08-17.63,44.44-42.61,48.48,27.92,5.15,49.59,23.51,49.59,56.57C1369.75,368.63,1339.27,392.14,1285.27,392.14ZM1221.35,257h55.1c27.55,0,39.31-12.12,39.31-29.38s-11.76-29.76-39.31-29.76h-55.1Zm0,34.9V355h58.78c28.65,0,42.61-12.12,42.61-31.22,0-19.47-14-32-42.61-32Z"/><path class="cls-1" d="M1880.26,161.46c-4,18.95-8,37.38-11.83,55.85-.52,2.48-1.43,3.45-4.13,3.42-13.23-.15-26.46,0-39.69-.14-2.85,0-3.9.87-4.49,3.62q-12,55.77-24.25,111.49c-3.8,17.41-7.68,34.8-11.27,52.26-.57,2.76-1.59,3.4-4.13,3.39-20.84-.08-41.67-.11-62.5,0-3.45,0-3.44-1.06-2.8-4q16.57-75.18,32.91-150.41c.86-4,1.51-8,2.56-11.95.9-3.33.28-4.48-3.48-4.45-20.22.17-40.45.08-60.67.08-41.66,0-83.33.05-125-.08-3.92,0-5.91.52-6.47,5a203.22,203.22,0,0,1-4.24,21.78c-.84,3.58-.14,4.52,3.64,4.48,19.76-.19,39.53-.09,59.3-.09,5.49,0,5.42,0,4.28,5.24-3.27,15-6.55,30.09-9.65,45.17-.63,3-1.76,4.07-5,4-20.37-.18-40.75,0-61.12-.18-3.09,0-4.18,1.06-4.8,3.82-5.79,25.62-11.75,51.2-17.42,76.84-.82,3.72-2.27,4.72-6,4.68-20.22-.21-40.45-.15-60.67-.06-2.9,0-4.07-.56-3.35-3.77,7.61-34,15.07-68.09,22.67-102.13,6.39-28.57,11.93-57.34,19.21-85.7,3-11.73,7.77-22.63,18.35-29.87,6.69-4.58,14.29-6.43,22.11-7.46,9.34-1.23,18.77-1,28.18-1q157.14,0,314.29,0Z"/><path class="cls-1" d="M1714.13,251.8c-4.68,20.72-9.33,41.16-13.91,61.61-5.43,24.31-10.86,48.62-16.13,73-.78,3.64-2,5.11-6.09,5.06q-30.09-.4-60.2,0c-4.39.06-4.39-1.36-3.62-4.79q14.71-65.14,29.3-130.32c.45-2,.34-4.59,3.84-4.57C1669.51,251.86,1691.7,251.8,1714.13,251.8Z"/></g></g></svg>